/* XPM */
static char *result[] = {
/* columns rows colors chars-per-pixel */
"128 128 50 1 ",
"  c #374F08",
". c #375107",
"X c #385007",
"o c #3E5C07",
"O c #365008",
"+ c #3C5608",
"@ c #3D5B08",
"# c #3F6007",
"$ c #405D07",
"% c #415E08",
"& c #436407",
"* c #446807",
"= c #4B6E07",
"- c #446508",
"; c #4B6408",
": c #466908",
"> c #4A6D08",
", c #4E7307",
"< c #4D7309",
"1 c #4E790B",
"2 c #507608",
"3 c #537C09",
"4 c #56810A",
"5 c #5A840A",
"6 c #57880B",
"7 c #5D8B0B",
"8 c #5E910C",
"9 c #618F0B",
"0 c #62910B",
"q c #69940D",
"w c #669A0C",
"e c #699D0D",
"r c #67A00E",
"t c #6CA40D",
"y c #6EA90E",
"u c #71AC0E",
"i c #75B30F",
"p c #78B70F",
"a c #77BA0F",
"s c #79BB0F",
"d c #6FAD10",
"f c #71AE10",
"g c #75B410",
"h c #78B710",
"j c #77B810",
"k c #7ABC10",
"l c #7FC20E",
"z c #7FC411",
"x c #80C511",
"c c None",
/* pixels */
"ccc009990:ccccccccccccccccccccccccccccccccc52<@o%ccccccccccccccccccccccccccccccccccccccccccccccccccccccccccccccccccccccccccccccc",
"ccc099999902ccccccccccccccccccccccccccccccc09999902ccccccccccccccccccccccccccccccccccccccccccccc&790990095555553>:&ccccccccccccc",
"ccc97099999992ccccccccccccccccccccccccccccc09999999<cccccc46wdyccccccccccccccccccccccccccccccc3099999999999909999902cccccccccccc",
"ccc5cc4999999903ccccccccccccccccccccccccccc999529999;ccccc7zzzzz1cccccccccccccc4ccccccccccc29999999999999999999999905ccccccccccc",
"cccccccc3099999993ccccccccccccccccccccccccc094cc59990-cccccc1xzzzdccccccccccc:9ccccccccccc9999999999999999999999999997cccccccccc",
"cccccccccc3999999995ccccccccccccccccccccccc03cccc99999cccccccckzzzz7cccccccc592cccccccccc999999999999999990999999999079ccccccccc",
"cccccccccccc5999999995kcccccccccccccccccccc2ccccc;99990ccccccccyzzzxccccccc707cccccccccc59999999999999990999990999999999cccccccc",
"ccccccccccccc599999999hxcccccccccccccccccccccccccc499990ccccccczzzzzccccc:990cccccccccc>99999999999999993cccccccO 999999cccccccc",
"cccccccccccccc59999999yzx6ccccccccccccccccccccccccc099990cccccxzzzzxwccc<999:cccccccccc9999999999999094ccccccccccc399999cccccccc",
"ccccccccccccccc5999999wzzzrcccccccccccccccccccccccc799999ccc7xzzzzzkcccc9995cccccccccc999999999999994cccccccccccccc99993cccccccc",
"cccccccccccccccc5999990zzzzk:cccccccccccccccccccccc299998<cezzzzzzzcccc7999cccccccccc79999999999903cccccccccccccccc9999ccccccccc",
"ccccccccccccccccc299999izzzzztccccccccccccccccccccc:999990gzzzzzzxcccc=999cccccccccc3099999999999cccccccccccccccccc7999ccccccccc",
"cccccccccccccccccc399990uzzzzzh073:cccccccccccccccco09990kzzzzzzxccccc090<ccccccccc>999999990999<cccccccccccccccccc%094ccccccccc",
"ccccccccccccccccccc399990rzzzzzze99999904ccccccccccc9999qxzzzzzxccccc5997cccccccccc9999999999997ccccccccccccccccccccww:ccccccccc",
"cccccccccccccccccccc<09999qhzzzzxg0099999:cccccccccc99990zzzzzz6cccc:990cccccccccc9999999999999cccccc7zxzzzzzzxzzzxxzk8ccccccccc",
"cc<cccccccccccccccccc=999999uzzzxxkw999990cccccccccc9999wzzzzz7ccccc099>ccccccccc99999999999995cc0kzzzzzzzzzzzzxt7cc35cccccccccc",
"cc7cccccrccccccccccccc>999999wkxzzzzu99999=ccccccccc9999wzzzzxccccc5990@cccccccc4999999999999ykxzzzzzzzzzzzg3cccccccc-cccccccccc",
"cc93cccc7zdcccccccccccc>9999990kzzzzzp09990ccccccccc9999ezzzzxcccc-9999cccccccc:999999999999fzzzzzzzzzfecccccccccccccccccccccccc",
"cc90ccccckzziccccccccccc:0999990izzzzzziw99<cccccccc9999ezzzzkcccc99999cccccccc999999999990hxzzzzzzicccccccccccccccccccccccccccc",
"cc99@ccccczzzzdccccccccccc-799999uzzzzzzxky0cccccccc7999rzzzztccc499990ccccccc09999999997wkzzzzzzzyccccccccccccccccccccccc-7cccc",
"cc995ccccctzzzz6ccccccccccccc59999yzzzxzxxzkwccccccc7999tzzzzwccc999990cccccc79999999999ezzzzzzzzyccccccccccccccccccccc20999<ccc",
"cc799cccccczzzzzccccccccccccccc:909wkzzxzzzzx7cccccc=999yxzzx1cc599999<ccccc49999999999tzzzzzzzzwcccccccccccccccccc<709999999ccc",
"cc399>ccccc1zzzzkcccccccccccccccc799qkxxzxzzzxcccccc=999tzxzzccc999999@ccccc9999999999uzzzzzzzz7ccccccccccccccc&5079099999999ccc",
"cc3990ccccccgzzzz0cccccccccccccccc998qhxzzzzzzrccccc&999yzzzxccc999999ccccc5999999999uzzzzzzzz4ccccccccccccc59990009999999999ccc",
"cc:999;ccccccxzzzzcccccccccccccccc49990gzzzzzzzcccccc999uzzzzcc3999999ccccc099999999uzzzzzzxxccccccccccc:99999999999999999999ccc",
"ccc99999ccccc8xzzzzcccccccccccccccc09990zzzzzzzfccccc999uzzzz3c9999090cccc299999990uzzzzzzzxccccccccccc9999999999999999999999<cc",
"ccc999990=cccckzzzzyccccccccccccccc29999gzzzzzzzccccc999gxzzz6c9999995cccc99999990ixzzzzzzz7ccccccccc2999999999999999999999997cc",
"ccc09999999cccczzzzzcccccccccccccccc9999wzzzzzzz7cccc999uzzzzw:0999995ccc:9999990izxzzzzzz8ccccccccc7999999999999907@399999990cc",
"ccc>9999999977<azzzzxrccccccccccccccc0999hxzzzzzzcccc999izzzxk9999999*ccc9999990pxzzzxzzztcccccccc>009999999999997ccc999999993cc",
"cccc99999999999qzzzzzzzcccccccccccccc5999yxzzzzzzcccc099ixxzzz9999999ccco999990jzxzzzzzzdcccccccc599999999999997cccc@9999999:ccc",
"cccc299999999999uxzzzzzzk2cccccccccccc9990zzzzzzzwccc099ixzzzz0999999ccc99999wjzzzzzzzziccccccc-99999999999999cccccc7999990ccccc",
"cccccc+9999999999szzzzzzzzhq9=&ccccccc2999fzzzzzzzccc999izxzzzw999990ccc9999qkzzzzzzzzkccccccc599999999999995ccccccc999990cccccc",
"cccccccccc<999999ezxzzzzzzzzt99907ccccc999wzzzzzzzrcc499pzzzzze999999cc7999wszzzzzzzxkcccccc$999999999999992ccccccc599995ccccccc",
"cccccccccccccc<900fxzzzzzzzzxg099995ccc@999kzzzxzzxcc299kxzzzzy79999<cc999wkxzxzzzzzx:ccccc399999999999990-cccccccc09992cccccccc",
"cccccccccccccccccc2fzzzzzzzzzzzr909999*c799yzzzzzzzuc-99kzzzzzu99999&c399wkxxzzzzzzzyccccc999999999999990ccccccccc5909:ccccccccc",
"cccccccccccccccccccc2hzzzzzzzzzzf09999997990zzzzzzzzc@99kzzzzzi99999cc000zzzzzzzzxzi>ccc%099999999999997cccccccccc999ccccccccccc",
"cccccccccccccccccccccc:kzzzzzzzzxkw999999999uxxzzzzzh&99kzzzzzk99999c290sxxxzzzzzxk0ccc-9999999907qeyukzxk3cccccc<97cccccccccccc",
"cccccccccccccccccccccccc3zzzzzzzxxzu99999999exzzzzzxxu99kzzzzzk79999c99uxxxxzzzzzkq3cc>99999990tizzzzk8cccccccccc05ccccccccccccc",
"ccccccccccccccccccccccccccrzzzzzxzzzkq9099990zzzzzzzzk99kzzzzxz09999:9ezzzzzzzzxzw0cc399999eukzzzzzs<ccccccccccc:2cccccccccccccc",
"cccccrrrrrrlz7ccccccccccccccgzzzxxzzxzu099999izzzzzxxxw9lzzzzzzq999500zzzzzzxzzxt99c2999ehkxzzzxkywoccccccccccccoccccccccccccccc",
"cccccccixxxzzzxyccccccccccccc2zzzzzxzzzzpt999rzzzzzzzzy9zzzzzzxe99999szzzzzzzxxu993599qizzzzzzie00cccccccccccccccccccccccccccccc",
"cccccccccwxxzzzzzx7ccccccccccccgzzzxzzzzzzzieqzzzzzzzzi0zzzzzzzu9999uzzzzzzzzzp099990uzxzzzky0990ccccccccccccccccccccccccccccccc",
"ccccccccccckzzzzzzzxdccccccccccc0pxxzzzzzzzzxszzzzzzzzz0kzzxzzzi999ezzzzzzzzzs00990uzzzzzzy97999cccccccccccccccccccccccccccccccc",
"cccccccccc<crzzzxzzzzzx7ccccccccc3rkzzzzzzzzzzzzxzzzzzzezzzzzzzs990zzzzzzzzzz0000rsxzzzzkq99999ccccccccccccccccccccccccccccccccc",
"cccccccccc<ccczzzzzzzzzzxh6ccccccc-0yzzzzzzzxzzzzzzzzzzuzzzzzzzz00izzzzzzzzzt09wszzzzzzi099990cccccccccccccccccccccccccccccccccc",
"ccccccccc5&cccctzzzzzzzzzzzzk4cccccc0quzzzzxzzzzzzzzzzzkzzzzzzzzqyxxzzzzxzzu9wizzzzzzke999999ccccccccccccccccccccccccccccccccccc",
"cccccccc%9ccccccczzzzzzzzzzzzzzzwcccc59wixxzzzzzzzzzzzzzzzzzzzzxuzzzzzzzxziepzzzzzzziq999990cccccccccccccccc178rw0999999990997cc",
"cccccccc09ccccccccdzzxzzzzzzzzzzzzzqcc990rszzzzzzzzzzzzzzzzzzzzzzzzzzzzzxxszzzzzzzzy8999990<ccc:78ygzxxzzhue09089999999995occccc",
"ccccccc>99ccccccccc4fkxxxxxzzzzzzzzzzziy090ykxzzzzzzzzzxzzzxzzzzzzzzzzzzzzzzzzzzzzywtyuiskxxzzzzzzzxzhtw9999999999999<cccccccccc",
"ccccccc099cccccc299999wukxxzzzzzzzzzzzzzzay00uzxxzzzzzzzzzzzzzzzzzzzzzzzzzzzzzzzzzzzxxzzxxzxzzzzzzpt09999999999995+ccccccccccccc",
"cccccc5999cccc49999999999egkzzzzzzzzzzzzzzzzkyeizzzzzzzzzzzzzzzzzzzzzzzzzxzzzzzxzzzzxzzzzzzzzzzky0999999990993&ccccccccccccccccc",
"cccccc9999cc4999999999999990ehzzzzzzzzzzzzzzxxxzzzzzzzzzzzzzzzzzzzzzzzzzzzzzzzzzzxzzxzxzzzzzsyq99999999097-ccccccccccccccccccccc",
"ccccc70997599999999999999999990tpzxxzzzzxzzzzzzzxzzzzzzzzzzzzzzzzzzzzzzzzzzzzzzzzzzzxxzxzkuw9999999999>ccccccccccccccccccccccccc",
"cccc-99999999999999999999999999990yszzzzzzzzzxzzzzzzzzxzzzxzxzzzzzzzzzzzzzzzzzzzzzzzxxkie0999990995&cccccccccccccccccccccccccccc",
"cccc99999999999999999999099999999990izzzzzzzzzzzzzzzzzzzzzzzzzzzzzzzzzzzzxzzzzzzxxxxit0999999902cccccccccccccccccccccccccccccccc",
"ccc2999999990999999999994590999099990izzzzzzzzzzzzzzzzzzzzzzzzzzzzzzzzzzzzzzzzxzxky0999999999ccccccccccccccccccccccccccccccccccc",
"ccc099999999052-@ccccccccccccc>7999999uxxzzzzzzzzzzzzzzzzzzzzzzzxzzzzzzzzzzxzzzzzzu009999999999990900909990995555-cccccccccccccc",
"cccc7999992cccccccccccccccccccccccc@*59uzzzzzzzzzzzzzzzzzxzzzxzzzzzzzxzzzzzzzzzzzzzky0999999990999999999999999909999904&cccccccc",
"ccccc700<ccccccccccccc==:>45577575575600yxzzxzzzzzzzzzzzzzzzzzzzzzzzzzzzzzzzzzzzzzzzxse9999999999999999909999907794<-@cccccccccc",
"ccccczzgccccccccccccccc<59900999999999909ezzzzzzzxzzzzzxzzzzzzzzzzzzzzzzzzzzzzzzzzzxxzxhw9999999999999053-&ccccccccccccccccccccc",
"cccezzzzzzzy6cccccccccccccccccccccc+>>2799ezzzzzzzxzzzzzzzzzzzzzzzzzzzzzzzzzzzzzzzzzzzzzxi00799999#ccccccccccccccccccccccccccccc",
"cckzzzzzzzzzzzzh4ccccccccccccccccccccccc99epzzzzzzzzzzzzzzzzzzzzzzzzzzzzzzzxzxzzzzzzzzzzxxxxiy003ccccccccccccccccccccccccccccccc",
"cxzzzzzzzzzzzzzzzzzxzye7cccccccccccccc<rukxzzzzzzzzzzzzzxzzzzzzzzzzzxzzzzzzzzzzzzzzzzzzzzzzzzzzz0ccccccccccccccccccccccccccccccc",
"yxzxzzxxxzzzzzzzzzzzzzzzxxxxkr3cccccchzzxxxxzzzzzzzzzzzzzzzzzxzzzxzzzzzzzzzzzzzzzzzzzxzzzxzzzzzzzzxk4cccccccccccccccccccrccccccc",
"ezxcccccccrxzzxxzzzzzzzzzzzzzzzzzzxxzzzzzzzzzzzzzzzzzzzzzzzxzzzzzzzzzzzzzzzzzzzzzzzzzzxlzzzzzzzzzzzzzzzzxxzttw3ccccccccz6ccccccc",
"4zzcccccccccchxxzzzzzzzzxzzzzzzzxzzzzzzzzzzzzzzzzzzzxzzzzzzzzzzzzzzzzzzzzzzzzzxzzzzzzzxxzzzzzzzzzzzzzzzzzzzzzzzzzzzxzzzxcccccccc",
"4z8ccccccccccccc7wgxxzzzzzzzzzzzzzzzzzzzzzzzzzzzzxzzzzzzzzzzzzzxxzzzzzzzzzzzzzzzzzzxzxxxzzzzzzzzzzzzzzzzxzxxzzzzzzzzzzz7cccccccc",
"czcccccccccccccccccccccc8ykzzzzzzzzzzzzzzzzzzzzzzzzzzzzzzzzzzzzzzzzzzzxzxzzzzzzzzzzuryyuikkhiiiiuuuyytteeeertdtd6wwrzkkccccccccc",
"cz<ccccccccccccccccccccc-700qeyuiszxzzzzzzzzzzzzzzzzzzzzzzzzzzzzzzzzxzzzzzzzzzzzzzzxzu090999999999999999999999993ccccccccccccccc",
"cjkksu7>cccccccccccccc5009999970090weuiszzzzzzzzzzzzxzzzzzxzzzzzzzzzzzzzxzzzzzzzzzzzzxxie9999999999999999999999997cccccccccccccc",
"cccc5qweq0009090900999999999999999997070rszzzzzzzzzzzzzzzzzzzzzzzzzzzzzzzzzzzzzxzzzzzzzzzst099999999999999999999999ccccccccccccc",
"ccccc59989999999999999999999999999990wizzzzzzzzzxzzzzzzzzzzzzzzxzzzzzzzzzzzzzzzzzzzzzzzzzzzsuq9999999999999999999999<ccccccccccc",
"cccccc7909999909999999999999999990qyszzzzzzzzzzzzzzzzzzzzzzzzzzzzzzzzzxzzzzzzzzzzzzzzzzzzzzzzzie9999999099999999999994cccccccccc",
"cccccccccc-:3537990999990543-@cc2izzzzzzzzzzzzzzzzzzxzzzzzzxzzzzzxzzzzzzzzxzzzzzzzzzzzzzzzzzzzxzs6cc&=45999999999999997ccccccccc",
"cccccccccccccccccccccccccccccccgxzzzzzzzzzzzzzzzzzzzzzzzzzzzzzzzzzzzzzzzzzzzzzzzzzzzzzzzzzzzzzzzzzx5ccccc799999099999999@ccccccc",
"ccccccccccccccccccccccccccccckzzzzxzzzzzzzzzzzzzzzzzzzzzzzzzzzzzzzzzzzzzzzzzxzzzzzzzzzzzzzzzzzzzzxxxxycccc%99999999999999<cccccc",
"cccccccccccccccccccccccccc1kzzzzzzzzzzzzzzzzzzzzzzxzzzxzzzxzxzzzzzzzzzzzzzzzzzzzzzzi00qwetyuuiskkzzzzzzk4ccc<90999999999093ccccc",
"ccccccccccccccccccccccccwxzzzzzzzxzzzzzxzzzzzxzzzzzzzzzzzzzzzzzzzzzzzzzzzzzzzzzzzzzzxu0999999999990qizzzzxcccc3999999999990ccccc",
"cccccccccccccccccccc8jxzzzzzzzzxzzzzzzzzzzzzzzzzzzzzzzzzzzzzzzzzzzzzzzzzzzzzzzzzzzxzxzhw9999999999990uzzzzxccccc79999999999%cccc",
"ccccccccccccccccwkxzzzzzxzzzzzzzzzzzzzzzlizzzzzzzzzzzzzzzzzzzzzzzzzxzxzzzzxzzzzzzzzzzzxxu09999999999092izzzzcccccc9999999999cccc",
"ccjgrryrre34wkzzzzzzzzzzzxzzxxzzzzzzzzie0kzzzzzzzzzxzzzzzzzzzzzzzzzzzzzzzzxzzzxzzzzzxzzzzze999999999990c7zzzzcccccc999999999cccc",
"ccc7zzzzzxzzzzzzzzzzzzzzzzzzxxzzzzzzyq90sxzzzzzzzzzzzzzzxzzzzxzzzzzxzzzzzzzzzzzzzzzzzzzzzzziw99999999999cczzzhccccc&999999993ccc",
"ccccchzzzzzzzzzzzxzzzkkkkiiiuuuuyye8065izzzzzxzzzzzzzzzzzzzzzzzzzzzzxzzzzzzzzzzzzzzzzzzzzzzzky99999999996ccdzzhccccc999999990ccc",
"cccccccw11ccccccc0009909999999999997ccyzzzzzzzzzzzzzzzzzzzzzzzzzzzzzzzzzzzzzzzzzzzzzzzzzzzzzzziw9999999903cc7zxrcccc@99999999ccc",
"cccccccccccccccc-09999999999999995ccc7zxzzzzzzzzzzzzzzzzzzzzzzzzzzzzzzzzzzzzzzzzzzzzzzzzzzzzzzzzu9999999992cckzxccccc899999997cc",
"cccccccccccccccc9999999999999997ccccczzzzzzzzzkzzzxzxzzzxzzzzzzzzzzzzzzzxzzzzzxzzzzzzxzzzzxzzzzzzkw99999999@ccxzccccc&99999999cc",
"ccccccccccccccc799999999999097ccccccxzzzzzzzzzekzzzzzzzzzzzzzizzzzzzzzzzzzzzzzzzzzzzzzzzzzzzzzzzzzzu99999999cc6zcccccc99909999:c",
"cccccccccccccc20999999999995cccccccxzzzzzzzzzt0kzzzzzzzzzzzzy0zzzzzxzzzzzzzzzzzzzikzzzzzzzzzzzzzzzzzi09999992cca0ccccc@99999999c",
"cccccccccccccc999999999900cccccccczzzzzzzzzzu99kzzzzzzzzzzxu99szzzzzzzzzzzzzzzzzze990eizzzzzxzzzzzzzxkq799999ccchcccccc09999999c",
"ccccccccccccc099999999993cccccccclzzzzzzzzzi999zzzzzzzzzzxh099yzzxzzzzzzzzzzzzzzzk099990tizzxxzzzzzzzzzr999995ccccccccc99999999c",
"cccc9<cccccc59999999909%cccccccchzxzzzzzzxk0990zxzzzzzxzzkw799qzzzzzzzzzzzzzzzzzxxr09999990yixxxzzzzzzxzu99999@cccccccc99999990c",
"cccc9973w0090999999995cccccccccjzzzzzzzzzk09990zzzzzzzzzzw99999kzzzzzzzzzzzzxzzzxxs099999999-cfxzzzzzzxzzi00990cccccccc99999999c",
"cccc9999999999999990:ccccccccctzzzzzzzzzzw99990xzzzzzzxxe999999yzzzzzzllzzzzzzzzzzzy999999999ccckzzzzzzzzzkq999<ccccccc99999994c",
"cccc999999999999907ccccccccccrzzzzzzzzzzw99999qxzzzzzxxk0999999czzzzzzlu00ilzzzzzzzz0999999999cccckzzzzzzzzke999ccccccc9999999>c",
"cccc9999999999990<cccccccccc6zzzzzzzzzxt9999000zzzzzzzzi999999-czzzzzzg8890uzzzzzzzzi9999999995cccc3zxzzxxkxxy997cccccc9999999&c",
"cccc999999999999ccccccccccc6zzzzzzzzzzu9999077czzxzzzzzy999999ccdzzzzza80999yzzzzzzxxe999999999=cccccuzzxxxxxxf99cccccc9999999cc",
"cccc70999999992ccccccccccccxzzzzzzzzzi9999990cczzzzxzzzw999997ccczzzzzz099909ezxzzzzxk0999999999&cccccqkzzzzzzzi00ccccc9999999cc",
"ccccc599999=ccccccccccccccxzzzzzzzzzu9999999+cczzzzzzzz099999&ccczzzzzzq999509wkzzzzzxu9999999999ccccc2wkzzzzzzzh0>cccc9999990cc",
"cccccc<4@ccccccccccccccc6xzzzzzzzzzy9999999,ccczzzzzzzg999999ccccuzzzzxy999=299ezzzzxzzw9999999999ccccc7qzxxzzzzzkqcccc9999905cc",
"cccccccccccccccccccccccjzzzzzzzzzze99999905cccczzzzzzxy999999ccccczzzzxu999<c999tzzzzzxk<7999999995ccccc9wzxzzzzzzk5ccc0999990cc",
"cccccccccccccccccccccyzzzzzzzzzzzw89999999ccccczzxxkzxw99999>cccccxzzzzs9994c7999yzzzzzzccc50999999<cccc:0txzzzzzzzucccc999990cc",
"ccccccccccccccccccc4zzzzzzzzzzxkq99999999cccccczzxxxzk999999cccccckzzzzzq897cc9999uzzzzzzcccc>099999ccccc79uzzzxzzzz0ccc299999cc",
"ccccccccccccccccccjzzzzzzzzzzzk099999999:ccccc3zzzzzxh999999ccccccrxzzzxt995cc99999uxzzzxrcccccc59999ccccc99izzzzzzzy-ccc99999cc",
"ccccccccccccccccezzzzzzzzzzzzh0999999903cccccc1zxzzxxy99999<cccccc<zzzzxi999cc=99999izzzzzcccccccc599-cccc-99kxxzzzzz0cccc9999cc",
"ccccccccccccccczzzzzzzzzzzxzu9999999999ccccccc1zzzzzzw99999ccccccccixzzzx999ccc999990pxxzzzcccccccc490ccccc790kxzzzzzy2ccc<999cc",
"cccccccccccccgzzzzzzzzzzkuw99999999999cccccccc1zzzzzz999990ccccccccrxzzzxr99ccc5999990hxzzzrcccccccc492ccccc99qkzzzzzzqcccc799>c",
"ccccc<wikzxzzzzzzzzzzitq9999999999999&cccccccc1xzzzzp99999<cccccccc7kxzzzu90ccc@9999990izzzzccccccccc90ccccc@99wzzzzzzuccccc09>c",
"ccccc4eyfyudy6euytew07999999999999902cccccccccczzzzzu99999ccccccccc<uzzzxs90cccc99999999wzzzkccccccccc94ccccc299wzzzzzk5cccc-95c",
"cccccccccccccc3099999999999999999995ccccccccccczzxzzw99999ccccccccccwzzzzzw9cccc29999999cczzztccccccccc9cccccc507ezzzzztccccc79c",
"cccccccccccccc999999999999999999909cccccccccccczzzzz09990<cccccccccc9szzzzu9ccccc9999999-cczzzcccccccccc4cccccc099ezzzzi@ccccc9c",
"ccccccccccccco0999999999999999999>ccccccccccccczzzzz09999ccccccccccc9yzxxzk0ccccc79999999ccczzkccccccccccccccccc997rzzzz0ccccc-c",
"ccccccccccccc79999999999999903ccccccccccccccccczzzzz09997ccccccccccc20kzxxxyccccc&9909999-cccyzz4ccccccccccccccc<900tzzzycccccc&",
"ccccccccccccc9999999999097-cccccccccccccccccccczzzzzq999$cccccccccccc9gxxxzkcccccc09e99990ccccc1kkccccccccccccccc7999yxzh:cccccc",
"cccccccccccc<9999999992ccccccccccccccccccccccc7zzzzzw999ccccccccccccc9wxzzzzcccccc40g99999:ccccccc80cccccccccccccc9999uzzqcccccc",
"cccccccccccc99999997ccccccccccccccccccccccccc5qzzzzze795cccc6cccccccc90kzzzzhcccccc9z099990ccccc7<ccccccccccccccccc9990uzucccccc",
"cccccccccccc9999995ccccc<ccccccccccccccccccc500xzzxxr09ccccc29>cccccc<9ezzzzzcccccccxt99990:ccccc999>cccccccccccccc39990ik<ccccc",
"ccccccccccc7999995cccccc59ccccccccccccccccc5990zzxzzt99cccccc097cccccc99izzzzycccccczj999999cccccc99997$ccccccccccc999990seccccc",
"cccccccccc7090995ccccccc990ccccccccccccccc79990kzzzzt9-cccccc<9903cccc990kzzzxccccccxz:09999<cccccc99999095:cccccc9999990quccccc",
"ccccccccc5999995cccccccc9999cccccccccccc%799999zzzzzu9cccccccc09099=cc990ezzzztccccczxcc999992cccccc9999999999990999999999w<cccc",
"cccccccc5999993ccccccccc99999cccccccc=099999999kzzzzu7ccccccccc999990=4990izzzz1cccczxccc599995cccccc99999999999999999999900cccc",
"ccccccc2999995cccccccccc509999952:5999999999999szzzzuccccccccccc70999999990kxzzxcccezzcccc299999cccccc9999999999999999999099cccc",
"cccccc<99090:cccccccccccc9999999990099999999999tzzzzicccccccccccc5999999999ezzzzjcckzzccccc:99999@ccccc999999999999999990702cccc",
"ccccc;9903cccccccccccccccc9999999999999999999999yzzzwccccccccccccc3099999999gzzzztcxzzccccccc999992ccccc999999999999999990&ccccc",
"cccc@99,cccccccccccccccccc<9999999999999999999999izztcccccccccccccc399999999czzzzzgzzzccccccccc$2999&ccccc<09999999999999ccccccc",
"cccc5cccccccccccccccccccccc599999999999999999994ccrzz4cccccccccccccc<9999999ccxzxzzzx6ccccccccccccccc@ccccccc27099999997cccccccc",
"cccccccccccccccccccccccccccc999999999999999995ccccchzzkcccccccccccccc&999994cc8zzzztcccccccccccccccccccccccccccc2099904ccccccccc",
"ccccccccccccccccccccccccccccccccccccX.cccccccccccccczxzxhcccccccccccccc>ccccccckzkccccccccccccccccccccccccccccccccc20>cccccccccc",
"cccccccccccccccccccccccccccccccccccccccccccccccccccccccccccccccccccccccccccccccc7ccccccccccccccccccccccccccccccccccccccccccccccc"
};
