/* XPM */
static char *result[] = {
/* columns rows colors chars-per-pixel */
"128 128 19 1 ",
"  c #8BAD00",
". c #8DB500",
"X c #8EBC00",
"o c #91B600",
"O c #92BC00",
"+ c #98BF00",
"@ c #8FC300",
"# c #93C500",
"$ c #9BC500",
"% c #97C900",
"& c #9BCB00",
"* c #A1C600",
"= c #A2CD00",
"- c #A9CF00",
"; c #A5D100",
": c #ABD400",
"> c #B0D700",
", c #B3D900",
"< c #BADD00",
/* pixels */
"XXX@@#;%;XX@@#&@%&%%%%#@&===%%%#@=%%%%%=#@@@@@@#@@@@@@@@#%%%%%%%%&>.@@@@@@@@@@@@@@@@%%%%%%%%#%%&&@@&&%%:$X@@@@#%#%%@@@@%@%%%%%%&",
"#@@@@%%%; .@@@&@@@%%%%%#;%%%%%#@%%%%%%&%@@@@@@@@@@@@@@@@@@####&&&&-#X@@@@@@@@@@@@@@@%%%%%@@%%%%&$X#%%%%>.@@@XX@%#%@@@@@@@@%%%%#@",
"@@@@#%%%$.X@@@@@@@@&%%##%%%%%%#@%%%%%#&#@@@@@@#@@@@@@@@@#@###@@....X.@@@@@@@@@@@@@@@@%%%%@@%%%%=##%%%%:$@%:,,=oX#@@@@@@@@@@@@@X@",
"#@@@#%%%XXX@@@@@@@@@%%%#%%#%%%##%%&%@@#@@#@@@@@@@@@@@@@##%%%%%&;::#@@@@@@@@@@@@@@@@@@%%%%@@@%#%%@#%%%&=X%&&%::X@X@@@@@@@@@@@@@@@",
"@@@@%%%%&%%#%@@@@@@@#%##%#%%%%@@%%%@@@@@@@@@@@@@@@@@@@@%%%%%%%%%&<<&X@@@@@@@@@@@#@@@@@#&&%@@%@%#@%%%%=##%%%%;$;>.@@@@@@@@@@@@@@@",
"#@@@%%%%##&&&=@@@@@@@#@#%@%%%#@#%%@@@@@@@@@@&@@@@@@@@@@@#%%##@@;;#.XX@@&@@@@@@@@@@@@@@@@%@@@@@@@#%%%&@#%%%%%&=%&.@@@@@@@@@@@@@@@",
"@@@@#%##@%X....@@@@@@@@#%@%%#@@#%@@@@@@@@@@@;@@@@@@@@@@@@@@@@@%@XO@@@@>;@@@&:&@@@@@@@@@@@@@@@@@@@%%%@@#%%%#%&%&$.@@@@@@@@@@@@@@@",
"@@@@@%%%%%%%@X.@@@@@@@@@@@%#@@@#@@@@@@@@#@@#&#@@;:%@@@@@@@@@@@@@@@@@@:;$X#%&=XX@@@@@@@@@@@@@@@@@@#%@@##%%%%%%%=XX@@@@@@@@@@@@@@@",
"@@@@%&%%%%%%%@@@@@@@@@@@@@@@@@@@@@@@@@@@@@X%%@%=&##@@@@@@@@@@@@@@@@@=&&O#&%;..X@@@@@@@@@@@@@&@@@@@@@@@%%%%%%%&&.@@@@@@@@@@@@@@@@",
"@@@@@&%%%%%%%&O@@@@@@@@@@@@@@@@@@@@@@@@%@.%%#@%%%&&&@@@@@@@@@@@@@@@@&%%@%%=o..@@@@@@@@@@@@@;;@@@@@@@@@%%%%%%%&X@@@@@@@@@@@@@@@@@",
"@@@@@@%%%#%%=;O@@@@@@@@@@@@@@@@@@@@@%@@%.X%%%%%%%%;XX@@@@@@@@@@@@#@#%%@%%=#.$=&@@@@@@@@@@@X==@@@@@@@@@@%%%%%#XX@@@@@@@@@@@@@@@@@",
"#X@@@@@@@%%Oo*$@@@@@@@@X@XXX..X@@@@@%@&@X%%%%%%%###@@@@@@@@@@@@@@@@%%%#%&#O&&&&::@@@@@@@@@@%%@@@@@@@@@@@@%%@@X@@@@@@@@@#@@@@@@@%",
".@@@@@@@@@#&@X.@@@@@@@X.........X@@%%%%#%%%%%%#&#@...O@@@@@#@@@@@@@%%%%%%@%&#%&:,@@@@@@@@@X%%@@@@@@@@@@@@@@@@@@@@@@@@@@#X@&o@@&:",
"O@@#@@@@@@&=:XX@@@@@@@@@XXX..X.X@@&%%%@#%%%##=::@@#&$@@@@@@@@@#@@@@%%%%%%%%@#&%X..@@@@@@@@X@%#@@@@@@@@@@@@@@@@@@@@@@@@:+X#=.@%:+",
"@%&*$oX@@@XO#.@@@@@@@@@@@@@@@@@@@@%&@@@####%;&;%@@%=@@@@@@@@@@@@@@@#&%%&%@@@O. ...@@@@@&&&%O%%@@@@@@@@@@@@@@@@@@@@@@#&&.#;o##%=.",
"%&=&#X..XO@@OX@@@@@@@@@@@@@@@@X..@@@@@@##%%%%:%#@%&&@O@@@@@@@@@@@@@#@%%%@@@X..XO@@@@@:=&&%%%##%@@@@@@@XXXXXX..X@@@@%%%&#$=X#&%$O",
"&#X.XoXXX@@@@@@@@@@@@@@@@@@@@@@@@@@@%%%%%%%&=#@#%=$..X@XXXXX.XX..X.@@@##%#%#@@@@@@@@:<:;%%%#%@@@@@X............X@@@%%%%%##%%%%%%",
"%&&::XX@@@@@@@@@@@@@@@@@@@##@@@@@@@#%%%%%##@@@#%&$...@X....X...X...@@@%%%%&%&%%@@@@@OX.XO@@@@@@@@@.............X@@@@###@#%%%%%%%",
"@@@%O@@XX.X.X.......X@%%%%%%%#@@@@@@#%%%%&=>@@#@O.OX@@XX.........X@@###%&%&#%&;@@@@@X%==&&%%%@@@@@X.X..........@@@@@@@@@#%%%%%%@",
"@@OX@@X.............X@@%%%%%%%#@@@@@@##%&=;#####%;&@@@@@@XXXXXXX@@@@%%%@@&&&%%,@@@@@;<,&%%%&%%%@@@@X........XX@@@@@@@@@@@@@@@@@@",
"@@XXXX@.....X.....XX@@@@%&%%%%%%%@@@@@@@#@@@#%&&*OO@@@@@@@@@@@@@@@@@#%%%@#;:&%:O@@@@.X$;&@@####@@@@@@X@X@X@@#@@@@@@@:&X@@#@@@@@@",
"@@%:;.@@@X@XXXXX@@@@@@@@@&&%%%%%&#@@@@@@@@@@@@XX.XX@@@@@@@@@@@@@@@@@%%%%#%XO:<<#@@@@@XXX@@@@#@@@@@@@@@@@@@@@#&X@@@@&%#.&:=X@@@@@",
"#&&-X@@@@@@@@@@@@@@@####@@&;;&&%&&@@@@@@@@@@@@@@@@@@@@@@@@@###@@@@@@@=%%%&.X.O:O@@@@@@@@@@@.X@@@@@@@@@@#@@@@#;$X@@#%#@&&&$@@@@@@",
"&&&X@@@@@@@@@@##@@#@#%%%%#@%&%&=:=@@@@@@@#@@@@@@@@X@@@@@@@#%OX@@@@@@@&;%%;@@OX..@@@@@@@@@@X.X;@@@@@@@@=#X@@#%&;.@%%%%%%%:.@@@@%%",
"@@@@@@@@@@@@@%%%@@%%%%#&%%%@#&@o.O#@@@@@@@@@@@@@Xo.#@XXX@#%&OX#@@@@@@@$:&:X@@@@X@@@@@@@@@@..&<=@@@@@@@:>$X@#%%;.#%%%%%%:$o@@@@##",
"OOX@@&%%#@@@@%%%&@@%%%%@&&%%@O&#X.X@@@@@@@@@@@@X*>.X$=>.%%%&o:$X@@@@@@O$,,X@@@@@@@@@@@@@@@..,==@@@@@@@&%,o@#%%&.#%%%%%=&X##%%##+",
":%X@%%%%%#@@@%%%%#O&%%%%#=%%&X.##@X@@@@@@@@@@@X;&&.#&%&O%%##&;OX@@@@@@@@O;X@@@@@@XX.XO@@@X #>%&@@@@@@@%%&=X#%%&@%%%%%#OX@@@@#%%&",
"@@@&%%%%%&@@@%%%%%.@&%%&%#;&##X.#@@@@@@@@@@@@X%%%&#%%@%$%##%%:.#@@@@@@@@@.@@@@@@@@X$;&%&@X.*&%&@@@@@@@@@%&O#%%%@%%%%%&&X@@@@@@@#",
"@@#%%%&&%%#@@%%%%%XX%=##&@#;=&@O.X@@@@#@@@@@@@%%##%%#@#%%@%%&&$&=%@@@@@@@@@@@@@@@@@@X=:=&#X#&%%@@@@@@@@@%%#@%%%@@@#%#%::.@@@@@@@",
"@@%%%&=&&%%@@&%%%&X@.$;&&@O@;;#@@X@@@@@@@@@@@#%%@%%%@@#%@%%%%%%&&;O@@@@@@@@@@@@@@XXXXX@:,&%%%%&@@@@@@@@@#%###%%@@@@@&&$X@@@@@@@@",
"@@&%%%&=%%&@X&%%%=X@@.%;&#..O=$@@@@@@@@@@@@@@#%%#%#@@@#@@%%%%&&$XXX@@@@@@@@@@@@@XX;:=#OX&<%%%%%@@@@@@@@@#%%@@#@@@@@@@@@@@@@@@@@@",
"@@&%%=%=%&#@X=%%%=X@@O.O==@..oX&@@#@@@@@@@@@@@#%##@@@@@@#%%%##XX@@@@@X@XXX@@@@@.;>=#%%&%@&:%%%%@@@@@@X@@X#XXXXXXXXX@@@@@@@@@@@@@",
"#X&&%=@=%%%X#&%%%;X@@@XX.&*%@@X<=@@@@@%%@@@@@@@#@@@@@@@@&O#@@@@@@@........X@@@o><%%%%%%%%%=&%%%@@XX...........X.......XX@@@@@@@@",
"@X#=%=#&%%%oX%=%&&X#@@@@X.+,:=@=;:@@@@;>@@@@@@@@@@@@@@@%&$.@@@@@@@@XX.X.X@@@@XO&:::%%%%%%%%%%%@...........X..............@@@@@@@",
"@@X==%X&%&OX@#;&=#.@@@@@@@X;%&&#%==@@#:&;@@@@@@@@@@@@@#=%#.@@@@@@@@@@@@@XXX@@@@@@XX%%%%%%%%#@%X........X.................@@@@@@@",
"@@X#;XO;;#.O@X;:$.X@@@@@@###;&%%%%&@@&%%;@@@;<@@@#@.@@&%#O.@@X@@@XX.........X@@X%;:;%%%%%%%%@@@@................X.....X@#%#@@@@@",
"@@@o#.#*o.@@@X#$.X@@@@@@@@@@&=%%%%%%##%%&@@;,,#@@%#..@&%%X ..@#%%&% .........X@,,%%%%%%%%%%%@@@@@@@@@@@@O@X@XXX##$%%@@%%%%%%%#@@",
"#@@O.Xo.o@@@@@..X@@@@@@@@@@@@&=%%%%%##%%%@#:%%%@@%&#..$%%@..@%%%%;o..X........@%=;=#@@@%%%%@@@@@@@@@@@@XX....+=%%%%##@%%%%%%%&=@",
"##@@X@#@@@@@@@OX@@@@@@@@@@@@@@%&%%%%@%%%%@%%%@%@@@;%#XO%%@X@%%%%;* .......X...@@@@#;@@@@@@@@@@@@@@@@@.......=&%%%%@#%#%%%%%%&;,%",
"%%@@@@@@@@@@@@@@@@@@@XXXX@@@&>&%%%##@#%%#@%%#@#@@#>&%%.#%@@#%%%&, ...........X@@@@@@%@@@@@@@@@@@@@@@.....oo=&&%&&@#%%##%%&%;=+=>",
"%%@@%&@@@#%&&&$XX.........@@&;&##@@@##%%@#%%@@@@@@&,&%#@%%@#%%%=$ X........X.@@@@@@@@@@@@@@@@@@@@@@........+$$$+@=%%%#@%%#%%;,OX",
"%%@#%%#@@%%%%&,$...........@@@%&=&#@@#%#@#%%@@@@#&.*>&%%#%##%%%%#=;;;=+.....X@@@@@@@@@@@@@@@#@@@@@@...X.......o :=%%%#@#%#o#%=>@",
"&%@&%%#@%%%%%+o........X...@@@@@@@@@@@@X@@%%@@@@@>>=%;&%%%%#%%#@%%%%%*o....X@@@@@@@@@@@@@@###=#@@#@........... $:%%%%@X@%%OX#%:@",
":@@%%%X@%%%%%;#.........X..o.X@@@@X..XX.@@%@@@@@@%>&=%%%%%%#%%@%%%%&=......@@@@@@@@@@@%%%###@@&;;&@...........o;%%%#@..@#%%o.#&%",
"#@%&%%OX%&%%%%=&o......o.. O;#O@@..&;XX&X@@@@@@@@@;%%%%%%%%@#@%%%%;$ ....@@@@@@@@@@@@%%%%%%%%#%&,:O@......... #%%%@@.. X%&&@X.O#",
"@@@:%;Oo#&%%%%%;+........ O;;=X@XX&=&X$;@@@@@@@@@@@%%%%%%%%@@%%%%#X.o..X@X..X......@@%%%%%%%%==$XX@@@.....  .........X.O#&&@@@@@",
"@#@&;;.o.#:&%$;;> ........=%%;#@.$&&%@=%=X@@@@@@@@@@@%%%%%@@@####XXXX@#@X.........X%%%%%%%%%%&=;&%@X@@.       ......@@.+%&@@@@@@",
"@#@@&X...oO::o.+=$O .....O;%%&#XX%&&%#=%=@@@@@@@@@@@@@@@@@@@@@@@@#@@@@@@@@XX.XXXX@%%%&&%%%%%%%%%<,o@@X         ...@@@@X#&#@@@@@@",
"#%%@@@o.....#o  .+==O ..X#&%%%&O#&%&=&%%%&@@@@@@@@@@@@@@@@@@@@@@@@@@@@#%##@@@@@@@@%%%%;=##%%%%=,=.@@..       .X@@O@#%%%%#@@@@@@%",
"#%%@@@@Xo....==#o.%&=*.X##&%%%%X#%%%=&%%%%@@@@@@@@@@@@@@@@X@#@@@@@#%@##%#@@@@@@@@#%%%%%::#X#%=$oo@@@@X.    ...XX##=%%%%%@##@@@%%",
"@%%@@@@@XX ..$&;@#@%%=&X@X&%%%%##%%%==%%%#@@@@@@@@@@@@@@X$;=#@@@@@%%###%#@@@@@@@@#%%%%#%;>=+O@@@#@@@@@@@@@@@X@@;;=&%%%%##%#@@%%%",
"#%%@@@@@@@XX O%%;%@%%%%%.@%%%%$@@%%%%%%%%@@@@@@@@@@@@@@@X&=&%&%##@%%###%%#@@@@@@@#%%%&.O%%&;=#X@@@@@@@#.@@@@@X@@@#.=%%%#%%##%%%#",
"%=O@@@@@@X@%O.#%%=&%%%%%#@#%%%#@@@%%%%%%#@@@@@@#=&%%#@@@@XX#%%%%%@%%%#X=&%#%@@@@@@%%;$.X@@@#XX.X@@@@@@@=o@@@@@@@@@o:&##%%O&#%#.&",
"=X@@@@@@@o.X%%X@%%%%#%%%&@@%%%#@@@@##%##@@@@@#XXX$##%%#@X&=%%%%%#X&%%%#o:%&@@@@@@@==<..@@@@@@@@@@@@@@@X:,*X@@@@@@X#:O%#%#o:=##o:",
"X@@@@@@@@O$OX#%##%%%%##%%#@#%%#@@@@@@@@@@@@@@@X####@@@@X=;%%%%%%#.=%%##XO>:@@@@@@@%<$ .@@@@@@@@@@XX@@@@;%;-O@@@@@@@Xo=%##XX@@X..",
"@@@@@@@@##-====&%@#%%%%%##@@@#@@@@@@@@@@@@@@X$;&%&%@@@XX:%%%#%%#@X=&%#@@@@%@@@@@@@#%..@@@@@@@@@@@.+.XX@=%%&;@@@@@@@XO%#@@@@@@@@#",
"@@@@@@@@@@&&%%%&;=##@@@@@@@@@@@X@@XXXX@@@@@X$;&##@@@@@X*;=@@#&#@@@.;%@@@@@@@@@@@@@@@@X@@#X@@@@@@@#<,$X.%%%%%%@@@@@@@@##oXXO#@@@@",
"@@@@@@@@@@@%%%%%%%%@@@@@@@XX....X.......@@@X$XO@@@@@@@@##@X*;%@@@@@@@@@@@@@@@@@@@@@@@%@@%&+.X@@@@X:&;:=#@%%%%@@@@@@@@X.$%%##@@@@",
"%%%@@@@@@@@@#%%%%%%%%@@@@X........X....X@@@@@X@@@@@@@@@@@@X@@@@@@@@@@@@@@@@@@@@@@@%%%%%%#&><;@@@@@:&%%%&#@%%#@@@@@@@@%=%#####=;%",
"%%%%@@@@@@@@@###%%%%%#@@@@X....o.....X@@@@@X*&###%#%%%%%#@@@@@@@@@@@XXXX..XX@@@@@@@#%%##$$$OX@@@@@;&%%%%%%@%#@@@@@@#Xo.+####;=%%",
"%%%%@@@@@@@@@@@@#@@@@@@@@@@@@@X@@X@@@@@@@@XX$*$#%%&%%%&%##%%##@@@@@........X@#@@@@@@####%&=*=@@@@@##%#%%%%%@@@@@@@@...=&%#@@%#%%",
"%@%#@@@@@@@@@@@#@@@@@@@@@@@@@@@@@@@@@@@@@@@@@@$#%#@&&#X*%%#%&%@@@@@.......X@@@@@@@##%%%%%%&<%@@@@@@oo###@#%##@@@@@X.X=%%##&;%%%%",
"@@@@%%@@@@@@@@@@@@@@@@@@@@@@@@oXX@@@@@@@@@@X$-;&#.;$#@.;#.&%#@@@@@@@@XX.@@@@@@@@@@#%###&&&&#@@XX... o###%%%%%#@@@@@@&%#@@:&;%###",
"%@%%%%@@@@@@@@@@@@@@@@@@@@@@@XO:&%@@@@@@@@@@@@@@@O;&#X=#@O:$@@@@@@@@@@@@@@@@@@@@@@@###X@#@@#@@@..O%%%###%%%%%%@@@@@#=#@@;:=##%%%",
"#%#%%#@@@@@@@X@XXXXX@@@@@@@@Xoo#%@@@@@@@@@@@@@@@.:%@@X#@X#@@@@@@@@@@@X##@@@@@@@@@@@@%%X@@@@@@@@#<;&%%%%#%%%%%%@@@@@XX.X@&%%%%%%#",
"@%@##@@@X...........X@@@@@@@O-=#@%%%%@@@@@@@@@@@O#@@@@@@@@@@@@@@@@@@###%%#@@@@@@@@@@&&@@@@@@@@@@%;;&&%o&&%#%%%@@@@@@X$%#%%%%%%%o",
"%#@#@@@@X.....o....XX@@@@@@@@#%%&%%%%%%@@@@@@@@@@@@@@@@@@@@@XX@@@#.#%%%%%%#@@@@@@@@@=:X@@@@@@@@@#@@@ .=%%##%%#@@@@@X#:&&%%%#%#XX",
"#@@@@@@@@@XXXXXXX@@@@@@@@@@@@O%%%%%%%%%#@@@@@@@@@@@@@@@@@X.....X@X#&%%%%%%%@@@@@@@@@&%@@@@@@#@@@@@@..=&%#O%%;@@@@@@@@@@%%&O#%#X#",
"@@@@@@@@@@@@@@@@@@@@@@#@@@@@XX@@%$%%%%%@@@@@@@@@@@@@@@@@.. .. . XX;%%%%%%%%@@@%%@@@@@@@@@@@@@@@@@@XX&&%#X+;:#@@@@@@@@#;;%@#&%@@@",
"@#@@@@#@@@###@@&%%@%@@@@@@@@@Xoo#####%%#@@@@@@@@@@@@@@@@. .  . . %%%%%#%%%#@@%%%@@@@@@@##@@@@@@@@@@%=&##@;;#@@@#@@@@@@@@@@@;##@@",
"@@@@@@@@@#%%@@%%%%%%@##@@@@@@#%%%#%%%%%#@@@@@@@@@@@@@@@@@X.......;&==%%%%%#%%%%%#@#@@@@#%%@@@@@@@@@@@XOX@#@@@@#XX###@@@@@@@#@@@@",
"@@@@@@@#%%%%@@%%%@%%@%%%@@@@@@@#####%%%#@@@@@@@@@@@@@@@@@@@@@@@@.&$$:%%%%##=%%%%@#%#%@@@%%%@@@@@@X. . .. .X@XX#=;%##%%##@@@@@@@@",
"@@@@%@#%%%%%#@%%%@%&@%%%%@@@@@@@@..$%%%#@@@@@@@@@@@X@@@@@@@@@@@@@XX:,>:&#o:%%%%#@&%#%%#@%%%%@@@@X . . . . ..@#;:;&%%%%%%@@@@@@@@",
"#@@#=#%%%%%##%%%%&&=@%%%%%#@##@@@..-%&#@@@@@@@@@@@##%%%#@@@@@@@#%%@XX@#@.:&%%%#O$=%%%%%#%%%&%@@@.. . . . . .XXX.XO@###@@@@@@@@@@",
"@@@@:%%%%#@@@%%=&=:#@%%%%%%%%;#@XX@;;&@@@@@@@@XXO&&%%%%#@%@@@#%%@%%@@@@X%;%%=&#X*&%%#%%#%%%%%#@@. . . . ....@.:;&%%%#%#@@@@@@@@@",
"@@@%:%#%@@@@#%:;=:%@@%>&&;&==;%#@@@;#@@@@@@@@@$>=&=&%%%#@&@@#%%##%&@@@@.>,<,&@@X$&%%#%%=;:&%%=@@.. . . ...X@@@#&;;&%%##%#@@@@@@@",
"@@@@#@@:$@@@&>&@;#@@@@&>:,:@@@@#@@@@@@@@@@X@@##O&##&%%##&@&@&&;@%&&@@@X.==%@#@@X$&%##%%-=&,&&&#@@@XXXXX@@@@@@@@@@@@@o%%#@@@@@@@@",
"@@@@#@&:X@@@%#@@@@@@@@@@@@@@@@@@@@@@@%X@%OX@%>.@@.*&&%#%#X:%;=$#&;@@@@@@@@@@@@@X.=%##%%=#;$,:@@@@@@@@@@@@@@@@@@#%@@@&%##@@@@@@@%",
"@@@&&%#@@@@@##@@@@@@@@@@@@@@@@@@@@@#;+X%-.@$-#X#X.-*X=%&O+<:$X$:=@@@@@@@@@@@@@@@.=#X#%&=o;.$=@@@@@@@@@@#@@@@#@@%%@@@&%@@@@@@@#&:",
"O#%%;@@@@@@@@@#@@@@@@@@@@@#@@@@@@@#&&.%;.@%%-.#&=-*.$;;&XX@@X.O#@@@@@@@@@@@@@@@@.$#.$;:#.&#O@@@@@@@@X&=#@@@@%%@#%#@@&%@@@@@@@;:%",
"#%%=..X@@@@@@@@@@@@@@@@#@@@@@@@@@#%%%%%&X%%%%%%%#oX.:;@@@#@@@@XXXXXXXXXXX@@@@@@@@X@@.:;@.#@@@@##@@@X$;&%%##@%%##%##@#%@@@@@@&&&@",
"&%=. .@@@@@@@@@@@@@@@@@@@@@@@@@@@#%%#@##%%%%%%%#$==oX@@XXX.......X........@@@@@@@@@@X@@@@@@@#&%##@@@#o#%%%%#%%#X=%##@@@@@@@@&%##",
"&&o+&=;-#@@@@@@@@@@@@@@@@#@@@@@@@@@@@@#%%%%#%%####$X@@...................#%%%%%%#@@@@@@@@@@oO#$#%%#@o=%%%%%X&%%@$;#%@@@@@@@%%%#%",
"%#%%%%%-<&@@@@@@@@@@@@@@@@@@@@@@@@@@@@@@@@@@@@@@#X@@@@..................X@#%%%%%%%%@@@@@@@@#@###@@@X:&%%%%#.;%#@X&,#@@@@@@@%%%#%",
"#%%@%&$#OX@@@@@@@@@@@@@@@@@@@@@@@#;&X#%$@@@@@@@@O#$.@@@O..X..........XX@@@@#%%%%%%%%#@@@@@X&&%%#@@X$&%%#%##X=%#@#X%@@@@@@@@%%%%%",
"&@@@O. ...X@@@@@@@@@@@@@@@#:X@@@#&###&-=X@@@@@###:*X@@@@@XXXXX.XXXX@@@@@@#@@#&==&%%%&#@@@X==##@@@@O;=###%#@X$&##@@@@@@@@@@@#%%%%",
"@@@@XXX@@@@@@@@@@@@@%#@@@#%&;o@@%%#%&%;OX@@##%%&=#X@@@@@@@@@@@@@@##@@###%%%%##%&=&==;#@@XX#O@@@@@@X%@X%;#@@@@@@@@@@@@@@@@@@@#%%#",
"&%&%#@@#@@@@@@@@@@@@;:$X@#%%;.@#%%%%%;=.@@@@####@@@@@@@@@@@@@@@@#%%#@#%#%#%%%%##%%oo$#@@@@#O@@@#@@@@@@@@@@@@@@@@@X.......@@@@@%%",
"%%%%%&:@@@@@@@@@@@@@&#:###%%&X%%%%%%&$X@@%%#%%#+X@@@@@@@%%%#@@@@#%%%#@%%%%#%%%%#o#%O..@@@#&##%#%%%%%#@@@@@@@@@@@.........@@@@#@%",
"#&%&%%>O@@@@@@@@@@@@##%;o#%%%@%%%%%#XX@@@@###&&#@@@@@@@%%%%&%#@@%%%%%X#%%%%%%;%%#.o%@@@@Xo$*%%%%%%%##%%%#@@@@@@@@X.....X@@@@%%%@",
"@%&:;&;#@@@@@@@@@@@@#@%%##%%%#@%%%%&;-X@@@@@@@#@@@@@@@%%%%&%%##@%%%%%O.#&%%%@#;&%#XX#@@@@##+#%O%%%O&%%%%#@@@@@@@@@@XX@@@@@@@%%%%",
"%&..&><$@@@@@@@@@@@@#@#%@@@%%@@@@@#&-#X@@@@@@@@@@@@@@@%%%&=%%%@@%%%%%##.&=%%%@#;;$@@.@@@@.==&#o=%@+&o%%@@@@@@@@@@@@@@@@@@@@@%%%%",
"%;@X..#O@@@@@@@@@@@@@@#%%@@@#@@@@@#@@@@@@@@@@@@@@@@@#%%%&&;%%%#X%%%%&#X@o#;&%o.O&;O@@@@@@@@@@X==#X=#X;##@@@@@@@@@@@#+X@@@@@@@=%%",
"%;@@@@X.@@@@@@@@@@@@@@@%##@@@@@@@@@@@@@@@@@@@@@@@@@@@#&%%&&&%%%X%&%%&$@@#o.&;%X. O$#@@@@@@@@@X;#XX#@X#@@#o.X@@@O@@%&+X@@@@@@@X=;",
">>X@@@@XXXXX.....oO@@@@@@@@@@@@@@@@@@@@#@@@@@@@@@@@@@X-%&#@&&%OX#=%%=+@@X@X.o%==#O;:%#@@@@;#X#@@@@@@@@@X&:oO#$:o#%%&o=&X@@@@@@#$",
"O-X@@@............o@@@@@@@@@@@@###@@@%%%%##@@@@@@@@@@X&&-#@;%&.@@=%&;X@@@@@@@.-=;=%%:&@@@=;;@@@@@@@@@#X=&&.#&%&X%%##%;$X@@@@@@#O",
"#X@@@X............X@@@@@@@@@@%%%%%@@%&%%%%%&@@@@@@@@@@#:@X&==oX@O&:=O.@@@@@@@@#:%%%%%&%@@;%;%@@@=%@@@@#%%%#%%#%%%%@%%;o#@@@@@@@@",
"@@@@@X...........X@@@@@@@@#*-%%%&@@@%%%%%%%%:@@@@@@@@@.#XX&$.X@@@O=o.@@@@@@@@@@#;%%%%%%@@%%%&@@,,=@@@@%%@%%%@@@%#@%%%%&=&;#@@@@@",
"@@@@@@@X......XX@@@@@@@@@X*&%%%%@%%%%%%%&$;=:=@@@@@@##X.X@.XX@@@@X.X@@@@@@@@@@@@#;&%%&%#@%%%@@;&#=@@@@%%#%%#@@%@@%%%%%=%#oX@@@@@",
"@@@@@@@@@@@@@@XXX.XX.XXXX=%%%%%@@%%@@&%%%:&#:<#@@@@@&#@#@@@@#@@@@@@@@@@@@@@@@@@#@%&%%%%%@%%&@%%&#%@@@##%@%@@@@@@@%%%#%@X##@@@@@@",
"#@@@@@@@@@@@@@..........%==;=&%%%%%%@&%@%%::.+@@@@@%%%@@%%@@%%=&%@@@@@@@@@@@@@@#,&%%@##@@&%#@%%#@#@@@@@#@@@@@@@#%#O#@@@@@@@@@@@@",
"@@@@@@@@@@@@@@@#XX...XXX@@@@@.$;%%%#@@&@@%%:;X@@@@@%%@#%%%@@@@#%&;=@@@@@@@@@@@@@#&&&&&##@&%@@%%@@@@@@@@@@@@@@@@&&$.@@@@@@@@@@@@@",
"@@@@@@@@@@%@@@@@@@@@@@@@@@@@@.>&%%&@@@%%X##&>@@@@@@&%@@%%###%%%%&:&@@@XX.XXXXXX#@@@@@@@@@@@@@&%@@@@@@@@@@@@X@@%&%O.@@@@@@@#@@@@@",
"@@@@@@@@@#@;#@@@@@@@@@@@@@@@o*;%%%%@X@%%O.#&;%@@@%@&&@%%%%#%%%%%&@@@@@..........@@@@@@@@X@@@@%@@@@@@@@@@@##.X@&&%@.@@@@####X@@@@",
"@@@@%%%%@@@@&:;&@X@@@@@@@@@X.:%%%%@@.@%%&X.X&&@@@;%;%#%%%#@%%%%%;&@@@@@XXXX..X. .@@@@X...O..@@@@@@@@@@@@@#=#..%%%@.X@%%%%;$.@@@@",
"@@@%%%%%&%%%%%,,@@@@@@@@@@@.@=%%%@@@.X@%&@..@%@@@<<;@@=%%#@#%%%%&&;@@@@@@@@@@X $&X@@@.o&%.#XX@@@@@@@@@@@@@;%#oo%%@@X%%%%=;.@@@@@",
"@@@%%%%%%%&;;=$XX@@@@@@XX@@@@@@@@@@@.X@&=@@X@@@@@>&@@@;%%&@#&%%%%%&&@@@@@@@@X.$:;O#@.$=:@X;&.@@@@@@@@@@@@@:;%%X#%%@@%%&%,o#@@@@@",
"@@%@%%%%%%#%#XX#@@@@.. . .@@@@@@@@@@X+#=@@@@@@@@@@@@@@%;:#@@%;%#&;&:X@@@@@@@XO=&=#@X.&%=@#=;O@@@@@@@@@@@@@@>=%%#%%@%%%%&#o%&%#@@",
"@&%&%%%%%%%%=>:-@o... .  ..@@@@@@@@@X.;&@@@@@@@@@@@@@@@::#@@@&:=#$:,$.X@@@@@X&&%&&#X$%%&@=&&#@@@@@@@@@@@@:=O=;%%#%%@%%%@%&&&&;$X",
"%%%%:@%%%%%%%%,>o@X  . .. .@@@@@@X@@##%@@@@@@@@%@@@@@@@##@@@@@%<$X@#$=o.X@@@X=&%&&@.&%%=@=%%&@@@@@@#@@@@@%<;=&&%%%%#%%@%%%%&;+@@",
"%%%%;;@#%%%%=,=.@@@@@......@@@@X###%$%#@@@@@@@#%%@@@@#@@@@@@@@@%X. .O&;#.O@@X=%%#=XX%%%=@&%%=@@@@@@@@@@@@@&&%%%%%%%@#@%%%%=&O@@@",
"%%%%%:;#O#&;=O.#@@@@@@@@@@@@@..%&&&%%%@@%@@@%&@#%@@@@@@@@@@@@@@@$;#X.#&=&.X@X=%%&&@@%%%;&&%%%@@@@@@@@@#@@@@%#%%%%%%@@#%%%%X@@@@@",
"%%%%%%:>%X@XX@@@@@@@@@@@@@@@.;&&&&#%%%@%@@@#%%#%%#@@@@@@@@@@@XX@#=;#@#%%&=.XX&%%%&@@&%%&;%%%%@@@@@@@@@@@@@@@@@####X@@@@@@@@@@@#@",
"%%%%X#%=:;#X@@@@@@@@@@@@@@X..o$%+#&&%@%%%@@&&#@%%@@@@@@@@@@@@X.X@&&:%@%%%&&.X%%%%%@@#%%%=%%%#@@@@@@@@@@@@@@@@@X......@@@@@@@@@@@",
"%%%=.X##%%=%XX@@@@@@@@@@@@...... :&$@@&#$@%&#$##&@@@@@@@@@@@@@#X.##&;%%%%%&#.#%%%%@@@%%%%%%%#@@@@@@@@@@@@@@@@@X. . ...@@@@@@@@@@",
"%%:$.X@@#XX..@@@@@@@@@@@@@.......:&#@&%O&%&#.$&:X@@@@@@@@@@@X@##X.#&&&#%%%%&@#%%%&@@@#%%%%%#@@@@@@@@@@@@@@@@@@@.. ..@@@@@@@@@@@@",
";=<o.X@@X@@@@@@@@XX@XX@@@X......+-o$#%#.:=+. :*X@@@@@@@@@@@@X .$&Oo%%%&%%%%%#@#%%%@@@@@%%%#@@@@@@@@@@@@@@@@@@@@@.X@@@@@@@@@@@@@@",
"%<*..@@@@@XX......o....@@@........ =&#.. ... ..@@@@@@@@@@@@@X$X.#%##%%%%%%%%%##%%&@@@@@@@#@@@@@@@@@@@@@@@@@@@@@@@@@@@.XX@@@@@@@@",
"@;..X@@@@X..............X@X........&O.........#@@@@@@@@@@@@@@=;==&####%%%%###@@@@@@@@@@@@#@@@@@@@@@@@@@@@@@XX@@@@@.... ..@@@@@@@",
"@@X.@@@@@@XX............o@@o.......X........o@XXXX@@@@@@@@#@@&=%&&=:&#@##@##@@@@@@@@@@@@@@@@@@@@@@@@@X.......X@@@@... . X@@@@@@@",
"#@@@@@@@@@@@@@@@@XXXXXX@@@@@o.............XX@@X...X@@@@@@@&@@@=%%%%%&&#@@@@@@@@@@@@@@@@@@@#&.@@@@@@@@....X...@@@@@XXXXX@@@@@%@@@",
"@@@@@@@@#@@@@@@@@@@@@@@@@@@@@@..........XX@@@@@@X@@@@@@@@@%=@@@%%%%%%%%#@@@@@@@@@@@@@@@@X@:<.X@@X@@@@@.....X@@@@@@@O@@@@@@%>:.X@",
"@@@@@@@@@@@@@@@@@@@@@XX.X@@@@@@@@XXX@@X@@@@@@@@@@@@@@@@@@@%=@@@@%%%%%%%%#@@@@@@@@@@@@@@&.#:&$.@&.@@@@@@@@@@@@@@@@O+.@@#+.%;=$.#@",
"X@@@@@@@@@@@@@@@@@@@@X...X@@@@@@@@@@@@@@@@@@@@@@@@@@@@@@@#%=@@@@@@%%%%%%%@@@@@@@@@@@%%.:o$&%&X%=.@@@@@@@@@@@@@@@=:=.#;<$X&%=o&:.",
"@@@@@@@@@@#@@@@@@@@@@@@@@@@@@@@#@@@@:#@@@@@@@@@@@@@@@@@@@#%=@@@@@@@@@@#@@@@@@@@@@@@@:,O;$-&%@#%;.@@@@@@@@@@@@@@&=#$$:&:O%%#%&&=.",
"@@@#@@@@@@@@@@@@@::;=@@@@@@%@#,%@@@:>@@@@@@@@@@@@@@@@@@@#%&X@@@@@@@@@@@@@@@@@@@@@@@@;=,&==%%@#%&$X@@@@@@OXX@@@%;%#=;%#&#%%#%%&#.",
"=;%#@@@@#@@@@@@@@&>&,;@@@%,&%,;@@@;=&@%:#@@@@@@@@@@@@@@#%%#X@#&%@@@@@@@@@@@@@@@@@@#&&&;;;=%%#%%&$X@@@&:<<.@@@@&&##%%##%#%##%%&==",
"==+X#@#;:@@@#;,>:&=%%;%@@;;%>&%#@&;&%%&:@@@@@@##@@@@@@@%%##%%%%=:;@@@#@@#@#@@@@@@@#&&%&:&&%%#%%$*X@#:,;::.@@#@%%#%%#@@####%%%&&%"
};
